<svg xmlns="http://www.w3.org/2000/svg" xmlns:xlink="http://www.w3.org/1999/xlink" width="2048" zoomAndPan="magnify" viewBox="0 0 1536 1535.999932" height="2048" preserveAspectRatio="xMidYMid meet" version="1.0"><path fill="#b3b3b3" d="M 1536.070312 768.035156 C 1536.070312 964.519531 1462.339844 1143.71875 1340.921875 1279.535156 C 1200.3125 1436.980469 995.765625 1536.054688 768.046875 1536.054688 C 540.324219 1536.054688 335.710938 1436.980469 195.164062 1279.535156 C 73.753906 1143.71875 0.0234375 964.519531 0.0234375 768.035156 C 0.0234375 343.890625 343.839844 0.0117188 768.046875 0.0117188 C 1192.183594 0.0117188 1536.070312 343.890625 1536.070312 768.035156 " fill-opacity="1" fill-rule="nonzero"/><path fill="#f2f2f2" d="M 768.046875 909.507812 C 907.242188 909.507812 1034.027344 752.019531 1034.027344 579.09375 C 1034.027344 415.710938 1002.429688 254.144531 768.046875 254.144531 C 533.636719 254.144531 502.023438 415.710938 502.023438 579.09375 C 502.023438 752.019531 628.824219 909.507812 768.046875 909.507812 " fill-opacity="1" fill-rule="nonzero"/><path fill="#f2f2f2" d="M 1340.921875 1279.535156 C 1200.3125 1436.980469 995.765625 1536.054688 768.046875 1536.054688 C 540.324219 1536.054688 335.710938 1436.980469 195.164062 1279.535156 C 192.734375 1184.683594 255.902344 964.902344 578.085938 897.253906 C 633.195312 953.507812 701.035156 985.316406 768.046875 985.316406 C 835.050781 985.316406 902.835938 953.507812 957.9375 897.253906 C 1280.191406 964.902344 1343.296875 1184.683594 1340.921875 1279.535156 " fill-opacity="1" fill-rule="nonzero"/></svg>